<!-- Generated by tools/gen-readme-assets.mjs. Do not edit by hand. -->
<svg width="1600" height="900" viewBox="0 0 1600 900" fill="none" xmlns="http://www.w3.org/2000/svg" role="img" aria-label="ContextFlow brings what you understood before into what you read now">

  <defs>
    <linearGradient id="paperGlow" x1="0" y1="0" x2="1" y2="1">
      <stop offset="0" stop-color="#fffdfa"/>
      <stop offset="0.58" stop-color="#fdfcfa"/>
      <stop offset="1" stop-color="#f3eee6"/>
    </linearGradient>
    <linearGradient id="amberGlow" x1="0" y1="0" x2="1" y2="1">
      <stop offset="0" stop-color="#fff7ed"/>
      <stop offset="1" stop-color="#f4ddbf"/>
    </linearGradient>
    <radialGradient id="halo">
      <stop offset="0" stop-color="#e9b977" stop-opacity=".30"/>
      <stop offset="1" stop-color="#e9b977" stop-opacity="0"/>
    </radialGradient>
    <pattern id="dots" width="28" height="28" patternUnits="userSpaceOnUse">
      <circle cx="2" cy="2" r="1.2" fill="#cfc7ba" opacity=".32"/>
    </pattern>
    <filter id="shadow" x="-20%" y="-20%" width="140%" height="160%">
      <feDropShadow dx="0" dy="18" stdDeviation="24" flood-color="#4b4033" flood-opacity=".13"/>
    </filter>
    <filter id="softShadow" x="-20%" y="-20%" width="140%" height="150%">
      <feDropShadow dx="0" dy="8" stdDeviation="12" flood-color="#4b4033" flood-opacity=".10"/>
    </filter>
    <marker id="arrow" markerWidth="10" markerHeight="10" refX="8" refY="5" orient="auto" markerUnits="strokeWidth">
      <path d="M1 1l7 4-7 4" fill="none" stroke="#b45309" stroke-width="1.7" stroke-linecap="round" stroke-linejoin="round"/>
    </marker>
    <marker id="arrowSoft" markerWidth="10" markerHeight="10" refX="8" refY="5" orient="auto" markerUnits="strokeWidth">
      <path d="M1 1l7 4-7 4" fill="none" stroke="#918a7c" stroke-width="1.7" stroke-linecap="round" stroke-linejoin="round"/>
    </marker>
    <style>
      .sans{font-family:-apple-system,BlinkMacSystemFont,"Segoe UI","PingFang SC","Hiragino Sans GB","Microsoft YaHei",Arial,sans-serif}
      .serif{font-family:"Songti SC","STSong","Noto Serif CJK SC",Georgia,"Times New Roman",serif}
      .mono{font-family:"SFMono-Regular",Consolas,"Liberation Mono",Menlo,monospace}
      .ink{fill:#1c1a17} .soft{fill:#57534c} .quote{fill:#918a7c} .amber{fill:#b45309}
    </style>
  </defs>

  <rect x="8" y="8" width="1584" height="884" rx="34" fill="url(#paperGlow)" stroke="#e7e2d9" stroke-width="2"/>
  <circle cx="1340" cy="112" r="300" fill="url(#halo)"/>
  <rect x="1010" y="38" width="548" height="310" fill="url(#dots)" opacity=".45"/>

  <g transform="translate(74 58) scale(2.05)">
    <path d="M4 6.5h12" stroke="#bdb4a1" stroke-width="2.2" stroke-linecap="round"/>
    <path d="M4 17.5h9" stroke="#bdb4a1" stroke-width="2.2" stroke-linecap="round"/>
    <path d="M4 12h13.5" stroke="#b45309" stroke-width="2.6" stroke-linecap="round"/>
    <path d="M16.3 9.2 19.8 12l-3.5 2.8" stroke="#b45309" stroke-width="2.4" stroke-linecap="round" stroke-linejoin="round"/>
  </g>
  <text x="132" y="92" class="sans" font-size="28" font-weight="650"><tspan fill="#57534c">Context</tspan><tspan fill="#b45309">Flow</tspan></text>
  <text x="74" y="178" class="mono quote" font-size="15" font-weight="600" letter-spacing="1.8">LOCAL-FIRST · PERSONAL KNOWLEDGE · CHROME EXTENSION</text>
  <g><text x="74" y="278" class="serif ink" font-size="61" font-weight="650" text-anchor="start" letter-spacing="-1.7">Bring what you knew before</text><text x="74" y="367" class="serif ink" font-size="61" font-weight="650" text-anchor="start" letter-spacing="-1.7">into what you read now.</text></g>
  <g><text x="78" y="487" class="sans soft" font-size="24" font-weight="400" text-anchor="start" letter-spacing="0">Connect the current page, your personal notes, and local AI.</text><text x="78" y="525" class="sans soft" font-size="24" font-weight="400" text-anchor="start" letter-spacing="0">Let every reading session continue from what you already know.</text></g>
  <g><rect x="76" y="585" width="176" height="42" rx="21" fill="#1c1a17" stroke="#1c1a17"/>
    <text x="164" y="612" class="sans" font-size="15" font-weight="600" text-anchor="middle" fill="#fff" letter-spacing="0">Chrome extension</text></g>
  <g><rect x="266" y="585" width="174" height="42" rx="21" fill="#f5f3ef" stroke="#e7e2d9"/>
    <text x="353" y="612" class="sans" font-size="15" font-weight="600" text-anchor="middle" fill="#57534c" letter-spacing="0">Local AI agent</text></g>
  <g><rect x="454" y="585" width="188" height="42" rx="21" fill="#fff1df" stroke="#e6c49a"/>
    <text x="548" y="612" class="sans" font-size="15" font-weight="600" text-anchor="middle" fill="#b45309" letter-spacing="0">MCP / note tools</text></g>

  <path d="M688 262C770 262 781 198 850 198" stroke="#e7e2d9" stroke-width="2" stroke-dasharray="5 8"/>
  <path d="M687 526C786 526 772 618 854 618" stroke="#e7e2d9" stroke-width="2" stroke-dasharray="5 8"/>

  <g filter="url(#shadow)">
    <rect x="814" y="126" width="704" height="626" rx="24" fill="#fff" stroke="#e7e2d9" stroke-width="2"/>
    <rect x="814" y="126" width="704" height="54" rx="24" fill="#f5f3ef"/>
    <rect x="814" y="158" width="704" height="22" fill="#f5f3ef"/>
    <circle cx="846" cy="153" r="7" fill="#d7cfc3"/><circle cx="870" cy="153" r="7" fill="#d7cfc3"/><circle cx="894" cy="153" r="7" fill="#d7cfc3"/>
    <rect x="934" y="141" width="360" height="25" rx="12.5" fill="#fff" stroke="#e7e2d9"/>
    <text x="1114" y="158" class="mono quote" font-size="11" text-anchor="middle">reader.local/article/long-term-memory</text>

    <rect x="815" y="180" width="418" height="571" fill="#fff"/>
    <line x1="1233" y1="180" x2="1233" y2="752" stroke="#e7e2d9"/>
    <rect x="1234" y="180" width="283" height="571" fill="#fbfaf7"/>

    <text x="852" y="226" class="mono quote" font-size="12" letter-spacing="1">CURRENT ARTICLE · LONG-TERM MEMORY</text>
    <g><text x="852" y="278" class="serif ink" font-size="27" font-weight="650" text-anchor="start" letter-spacing="0">The key to long-term memory</text><text x="852" y="319" class="serif ink" font-size="27" font-weight="650" text-anchor="start" letter-spacing="0">may not be storing more.</text></g>
    <rect x="852" y="370" width="295" height="13" rx="4" fill="#ece8e1"/><rect x="852" y="398" width="330" height="13" rx="4" fill="#ece8e1"/>
    <rect x="846" y="425" width="344" height="34" rx="6" fill="#ffda47" opacity=".36"/>
    <text x="852" y="448" class="serif ink" font-size="18">Retrieval is more important than storage</text>
    <rect x="852" y="481" width="320" height="13" rx="4" fill="#ece8e1"/><rect x="852" y="510" width="278" height="13" rx="4" fill="#ece8e1"/>
    <rect x="846" y="542" width="259" height="33" rx="6" fill="#5aa8f5" opacity=".22"/>
    <rect x="852" y="551" width="241" height="13" rx="4" fill="#b9cfe6"/>
    <rect x="852" y="601" width="327" height="13" rx="4" fill="#ece8e1"/><rect x="852" y="630" width="296" height="13" rx="4" fill="#ece8e1"/>

    <rect x="1258" y="207" width="234" height="46" rx="11" fill="#1c1a17"/>
    <g transform="translate(1272 217) scale(0.92)">
    <path d="M4 6.5h12" stroke="#bdb4a1" stroke-width="2.2" stroke-linecap="round"/>
    <path d="M4 17.5h9" stroke="#bdb4a1" stroke-width="2.2" stroke-linecap="round"/>
    <path d="M4 12h13.5" stroke="#b45309" stroke-width="2.6" stroke-linecap="round"/>
    <path d="M16.3 9.2 19.8 12l-3.5 2.8" stroke="#b45309" stroke-width="2.4" stroke-linecap="round" stroke-linejoin="round"/>
  </g>
    <text x="1301" y="235" class="sans" font-size="15" font-weight="650" fill="#fff">ContextFlow</text>
    <text x="1260" y="282" class="mono quote" font-size="10.5" letter-spacing=".9">GROUNDED IN YOUR NOTES</text>
    <g><text x="1260" y="322" class="serif ink" font-size="16" font-weight="650" text-anchor="start" letter-spacing="0">Is this consistent with what I read before?</text></g>
    <line x1="1260" y1="356" x2="1488" y2="356" stroke="#e7e2d9"/>

    <circle cx="1268" cy="391" r="5" fill="#67c97b"/><text x="1282" y="396" class="sans soft" font-size="12.5">April note · recall timing matters more.</text>
    <rect x="1282" y="412" width="174" height="22" rx="11" fill="#edf7ef"/><text x="1294" y="427" class="mono" font-size="10" fill="#3f7f4c">notes/memory-apr.md</text>
    <circle cx="1268" cy="469" r="5" fill="#f47794"/><text x="1282" y="474" class="sans soft" font-size="12.5">June experiment · wrong recall can be worse.</text>
    <rect x="1282" y="490" width="177" height="22" rx="11" fill="#fff0f3"/><text x="1294" y="505" class="mono" font-size="10" fill="#aa4860">notes/experiment-jun.md</text>
    <circle cx="1268" cy="546" r="5" fill="#b45309"/>
    <g><text x="1282" y="551" class="sans soft" font-size="12.5" font-weight="400" text-anchor="start" letter-spacing="0">The tasks differ, so the sources do not</text><text x="1282" y="574" class="sans soft" font-size="12.5" font-weight="400" text-anchor="start" letter-spacing="0">yet validate each other.</text></g>
    <line x1="1260" y1="608" x2="1488" y2="608" stroke="#e7e2d9"/>
    <rect x="1260" y="631" width="112" height="34" rx="8" fill="#1c1a17"/><text x="1316" y="653" class="sans" font-size="12.5" font-weight="650" fill="#fff" text-anchor="middle">Follow up</text>
    <rect x="1382" y="631" width="106" height="34" rx="8" fill="#fff" stroke="#e7e2d9"/><text x="1435" y="653" class="sans soft" font-size="12.5" font-weight="650" text-anchor="middle">Write back</text>
  </g>

  <line x1="74" y1="801" x2="1526" y2="801" stroke="#e7e2d9"/>
  <circle cx="84" cy="841" r="5" fill="#b45309"/>
  <text x="104" y="848" class="serif ink" font-size="25" font-weight="600">Not another chat box—a layer of personal context that persists across time.</text>
</svg>
